<svg xmlns="http://www.w3.org/2000/svg" width="351" height="351" fill="none" xmlns:v="https://vecta.io/nano"><use href="#B" fill="#fffcfa"/><path d="M87.5 87.692L0 87.756l.064 87.5 87.5-.064-.064-87.5z" fill="#f18b94" fill-opacity=".56"/><path d="M0 87.756l87.5-.064L.064 175.256 0 87.756z" fill="#fffdfd"/><path d="M87.5 87.692l87.5-.064.064 87.5L87.5 87.692z" fill="#6077ad" fill-opacity=".63"/><use href="#C" fill="#fff"/><use href="#B" x="87.5" y="-0.064" fill="#bc839c"/><path d="M175 87.628a87.5 87.5 0 0 0 61.853-25.674A87.5 87.5 0 0 0 262.436.064l-87.5.064" fill="#f18b94"/><path d="M349.936 0l-87.5.064.064 87.5L350 87.5 349.936 0z" fill="#fffdfc"/><use href="#B" x="87.564" y="87.436" fill="#6077ad"/><use href="#C" x="-174.872" y="175.128" fill="#fff"/><g fill="#f18b94"><use href="#B" x="-87.372" y="175.064"/><path d="M87.628 262.692a87.5 87.5 0 0 0 61.853-25.673c16.397-16.422 25.6-38.684 25.583-61.891l-87.5.064" fill-opacity=".44"/><use href="#B" x="-87.308" y="262.564" fill-opacity=".33"/></g><use href="#B" x="0.192" y="262.5" fill="#fef2ec"/><path d="M87.628 262.692c23.207-.017 45.469 9.186 61.891 25.583a87.5 87.5 0 0 1 25.673 61.853l-87.5.064" fill="#fce6db"/><use href="#C" x="0.128" y="175" fill="#fff"/><use href="#B" x="87.628" y="174.936" fill="#fef7f3"/><use href="#B" x="175.128" y="174.872" fill="#6077ad"/><path d="M262.692 350.064a87.5 87.5 0 0 1 87.436-87.564l.064 87.5" fill="#f18b94"/><defs ><path id="B" d="M174.936.128l-87.5.064.064 87.5 87.5-.064-.064-87.5z"/><path id="C" d="M349.936 0l-175 .128.128 175 175-.128-.128-175z"/></defs></svg>