<svg xmlns="http://www.w3.org/2000/svg" width="591" height="261" fill="none" xmlns:v="https://vecta.io/nano"><g fill="#fff"><path d="M700 0L0 .513l.256 350 700-.513L700 0z"/><path d="M175 .385L0 .513l.128 175 175-.128-.128-175z"/></g><path d="M87.5.449L0 .513l.064 87.5 87.5-.064L87.5.449z" fill="#f18b94"/><path d="M175 .385L87.5.449l.064 87.5 87.5-.064L175 .385z" fill="#6077ad" fill-opacity=".35"/><g fill="#f18b94"><path d="M87.5.449l87.564 87.436-87.5.064L87.5.449z"/><use href="#B" fill-opacity=".41"/></g><path d="M350 .256L175 .385l.128 174.999 175-.128-.128-175z" fill="#fff"/><path d="M262.5.32L175 .385l.064 87.5 87.5-.064L262.5.32z" fill="#fdefe7"/><path d="M218.814 87.853c24.163-.018 43.736-19.62 43.718-43.782S242.912.335 218.75.352s-43.736 19.62-43.718 43.782 19.62 43.736 43.782 43.718z" fill="#6077ad"/><path d="M262.564 87.82l-87.5.064.064 87.5 87.5-.065-.064-87.5z" fill="#fce3d7" fill-opacity=".28"/><path d="M218.878 175.352c24.162-.017 43.736-19.619 43.718-43.782s-19.62-43.735-43.782-43.717-43.736 19.619-43.718 43.782 19.62 43.735 43.782 43.717z" fill="#f18b94"/><use href="#B" x="262.5" y="-0.193" fill="#fffdfc"/><path d="M525 .128l-87.5.064.064 87.5 87.5-.064L525 .128z" fill="#fffcfa"/><use href="#B" x="350" y="-0.257" fill="#f18b94" fill-opacity=".56"/><path d="M350.064 87.756l87.5-.064-87.436 87.564-.064-87.5z" fill="#fffdfd"/><path d="M437.564 87.692l87.5-.064.064 87.5-87.564-87.436z" fill="#6077ad" fill-opacity=".63"/><path d="M700 0L525 .128l.128 175 175-.128L700 0z" fill="#fff"/><path d="M612.5.064L525 .128l.064 87.5 87.5-.064-.064-87.5z" fill="#bc839c"/><path d="M525.064 87.628a87.5 87.5 0 0 0 61.853-25.674A87.5 87.5 0 0 0 612.5.064L525 .128" fill="#f18b94"/><use href="#B" x="525" y="-0.385" fill="#6077ad"/><use href="#C" fill="#fff"/><path d="M87.628 175.449l.064 87.5-87.5.064 87.436-87.564z" fill="#f18b94"/><use href="#C" x="350" y="-0.257" fill="#fff"/><g fill="#f18b94"><use href="#B" x="350.064" y="87.243"/><path d="M437.692 262.692a87.5 87.5 0 0 0 61.853-25.673c16.397-16.422 25.6-38.684 25.583-61.891l-87.5.064" fill-opacity=".44"/></g><use href="#C" x="525" y="-0.385" fill="#fff"/><use href="#B" x="525.064" y="87.115" fill="#fef7f3"/><defs ><path id="B" d="M87.564 87.949l-87.5.064.064 87.5 87.5-.064-.064-87.5z"/><path id="C" d="M175.128 175.385l-175 .128.128 175 175-.128-.128-175z"/></defs></svg>